<svg version="1.1" id="Layer_1" xmlns="http://www.w3.org/2000/svg" xmlns:xlink="http://www.w3.org/1999/xlink" x="0px" y="0px"
	 width="100%" viewBox="0 0 772 1018" enable-background="new 0 0 772 1018" xml:space="preserve">
<path fill="#031321" opacity="1.000000" stroke="none" 
	d="
M773.000000,293.000000 
	C773.000000,535.333313 773.000000,777.166687 773.000000,1019.000000 
	C515.666687,1019.000000 258.333344,1019.000000 1.000000,1019.000000 
	C1.000000,679.666687 1.000000,340.333344 1.000000,1.000000 
	C258.333344,1.000000 515.666687,1.000000 773.000000,1.000000 
	C773.000000,98.166664 773.000000,195.333328 773.000000,293.000000 
M764.888000,662.500000 
	C764.887634,515.829712 764.872681,369.159393 764.924988,222.489120 
	C764.927979,214.128311 762.888245,206.968521 756.722717,200.815338 
	C695.024841,139.241241 633.417236,77.576584 571.896667,15.825382 
	C566.428833,10.337020 560.189819,7.981121 552.661072,7.982194 
	C392.327789,8.005046 231.994476,7.975581 71.661278,8.102650 
	C66.250992,8.106937 60.626797,8.946918 55.468014,10.564019 
	C26.922823,19.511957 10.271825,42.560070 10.268998,72.897285 
	C10.241805,364.730560 10.246689,656.563843 10.303835,948.397095 
	C10.304775,953.203064 10.610593,958.102844 11.561399,962.799500 
	C17.726801,993.254456 43.034458,1013.940552 74.263062,1013.974976 
	C146.096283,1014.054321 217.929657,1014.000671 289.762970,1014.000732 
	C426.096283,1014.000854 562.429565,1013.994812 698.762878,1014.013489 
	C708.706299,1014.014832 718.437866,1012.752197 727.445740,1008.415222 
	C752.484619,996.359863 764.798523,976.043518 764.836426,948.499878 
	C764.967224,853.500061 764.887512,758.500000 764.888000,662.500000 
z"/>
<path fill="#1E81CD" opacity="1.000000" stroke="none" 
	d="
M764.888000,663.000000 
	C764.887512,758.500000 764.967224,853.500061 764.836426,948.499878 
	C764.798523,976.043518 752.484619,996.359863 727.445740,1008.415222 
	C718.437866,1012.752197 708.706299,1014.014832 698.762878,1014.013489 
	C562.429565,1013.994812 426.096283,1014.000854 289.762970,1014.000732 
	C217.929657,1014.000671 146.096283,1014.054321 74.263062,1013.974976 
	C43.034458,1013.940552 17.726801,993.254456 11.561399,962.799500 
	C10.610593,958.102844 10.304775,953.203064 10.303835,948.397095 
	C10.246689,656.563843 10.241805,364.730560 10.268998,72.897285 
	C10.271825,42.560070 26.922823,19.511957 55.468014,10.564019 
	C60.626797,8.946918 66.250992,8.106937 71.661278,8.102650 
	C231.994476,7.975581 392.327789,8.005046 552.661072,7.982194 
	C560.189819,7.981121 566.428833,10.337020 571.896667,15.825382 
	C633.417236,77.576584 695.024841,139.241241 756.722717,200.815338 
	C762.888245,206.968521 764.927979,214.128311 764.924988,222.489120 
	C764.872681,369.159393 764.887634,515.829712 764.888000,663.000000 
M197.500000,971.998779 
	C364.474487,971.998718 531.448975,972.001465 698.423462,971.993958 
	C714.547058,971.993225 722.941406,963.917480 722.941956,948.387024 
	C722.950256,713.755676 722.948059,479.124359 722.948242,244.493042 
	C722.948242,242.712723 722.948242,240.932419 722.948242,238.507584 
	C720.176086,238.507584 718.054871,238.507614 715.933594,238.507584 
	C677.606018,238.507004 639.278442,238.477005 600.950928,238.522598 
	C588.395447,238.537537 576.301941,236.393860 565.514160,229.807541 
	C544.406738,216.920837 534.263733,197.698044 534.218079,173.115524 
	C534.145935,134.288162 534.197876,95.460587 534.197327,56.633099 
	C534.197327,54.533058 534.197327,52.433022 534.197327,50.087559 
	C531.846619,49.983032 530.214417,49.846989 528.582153,49.846886 
	C377.604889,49.837318 226.627609,49.830811 75.650345,49.849644 
	C60.573555,49.851524 52.173965,58.300911 52.173477,73.387909 
	C52.164074,364.844025 52.164082,656.300110 52.173000,947.756226 
	C52.173492,963.888245 60.339558,971.991028 76.518066,971.995239 
	C116.512047,972.005554 156.506027,971.998718 197.500000,971.998779 
M576.098145,168.457336 
	C574.536377,186.540268 583.539734,197.179581 603.724365,196.547913 
	C630.845825,195.699173 658.013794,196.342773 685.161804,196.325714 
	C687.069153,196.324509 688.976318,196.157883 690.236938,196.098602 
	C652.247925,158.000793 614.291443,119.935707 576.098389,81.633293 
	C576.098389,110.031075 576.098389,138.750290 576.098145,168.457336 
z"/>
<path fill="#031321" opacity="1.000000" stroke="none" 
	d="
M197.000000,971.998779 
	C156.506027,971.998718 116.512047,972.005554 76.518066,971.995239 
	C60.339558,971.991028 52.173492,963.888245 52.173000,947.756226 
	C52.164082,656.300110 52.164074,364.844025 52.173477,73.387909 
	C52.173965,58.300911 60.573555,49.851524 75.650345,49.849644 
	C226.627609,49.830811 377.604889,49.837318 528.582153,49.846886 
	C530.214417,49.846989 531.846619,49.983032 534.197327,50.087559 
	C534.197327,52.433022 534.197327,54.533058 534.197327,56.633099 
	C534.197876,95.460587 534.145935,134.288162 534.218079,173.115524 
	C534.263733,197.698044 544.406738,216.920837 565.514160,229.807541 
	C576.301941,236.393860 588.395447,238.537537 600.950928,238.522598 
	C639.278442,238.477005 677.606018,238.507004 715.933594,238.507584 
	C718.054871,238.507614 720.176086,238.507584 722.948242,238.507584 
	C722.948242,240.932419 722.948242,242.712723 722.948242,244.493042 
	C722.948059,479.124359 722.950256,713.755676 722.941956,948.387024 
	C722.941406,963.917480 714.547058,971.993225 698.423462,971.993958 
	C531.448975,972.001465 364.474487,971.998718 197.000000,971.998779 
M484.763458,861.499939 
	C484.808350,875.665894 484.628601,889.836914 484.946625,903.996704 
	C485.540649,930.444458 511.161041,956.563538 537.644104,956.963257 
	C569.968323,957.451111 602.310913,957.448120 634.635498,956.973267 
	C662.274109,956.567261 687.920593,929.732300 687.991577,901.992188 
	C688.071716,870.659241 688.064026,839.325745 687.996338,807.992737 
	C687.932556,778.470764 661.403870,752.038879 631.866150,752.003296 
	C601.532959,751.966675 571.199585,751.964844 540.866394,752.003967 
	C511.633545,752.041626 485.255859,777.889404 484.898041,807.002258 
	C484.678864,824.832703 484.796875,842.667175 484.763458,861.499939 
M279.602142,775.828918 
	C302.777924,788.953979 323.123108,830.049316 317.191193,852.018982 
	C311.915619,852.018982 306.586731,851.858521 301.270874,852.053894 
	C291.638153,852.408020 283.340454,858.623108 283.007996,867.276794 
	C282.382141,883.568054 282.376770,899.920227 283.043823,916.208984 
	C283.398773,924.875916 291.016449,930.905396 299.679749,931.130493 
	C305.007751,931.268921 310.343475,931.149719 315.675232,931.096130 
	C321.275269,931.039795 326.090546,928.648315 328.611420,923.922485 
	C330.788300,919.841492 332.338165,914.909363 332.423737,910.320984 
	C332.752838,892.673035 332.397125,875.011841 332.267914,857.355896 
	C332.155029,841.930237 330.132294,826.785645 325.040314,812.172913 
	C315.205841,783.950439 296.959106,764.176575 267.641998,755.795410 
	C251.034378,751.047607 234.038986,751.205322 217.056870,752.644958 
	C203.294662,753.811707 190.238022,757.632385 178.403564,765.013489 
	C156.545670,778.646057 144.425751,799.208069 139.295776,823.612366 
	C136.344223,837.653503 135.865829,852.300659 135.220993,866.717346 
	C134.521774,882.350281 134.689362,898.035950 134.926010,913.691895 
	C135.083099,924.084900 142.517578,930.973877 152.874176,931.167786 
	C157.039062,931.245789 161.206802,931.229614 165.372589,931.189331 
	C177.359146,931.073486 184.642899,924.020386 184.823303,911.900879 
	C185.021729,898.571716 185.021912,885.235107 184.823563,871.905945 
	C184.640152,859.580444 176.936249,852.168335 164.568970,852.007751 
	C159.609421,851.943359 154.648331,851.997192 149.488815,851.997192 
	C149.371735,850.740356 149.179688,849.938477 149.241684,849.156799 
	C150.313995,835.635315 152.740036,822.404297 158.173431,809.887207 
	C167.116135,789.285583 181.966446,775.281799 203.887543,769.227295 
	C216.251312,765.812500 228.877884,765.449524 241.563599,765.966125 
	C254.679947,766.500305 267.309540,769.107849 279.602142,775.828918 
M219.500000,654.009766 
	C372.953888,654.009705 526.407776,654.009705 679.861633,654.007935 
	C681.860901,654.007935 683.860718,653.950134 685.859314,653.980896 
	C689.427246,654.035828 690.989075,652.239868 690.978882,648.749390 
	C690.947693,638.086243 690.942017,627.422791 690.988831,616.759705 
	C691.003662,613.375732 689.395203,611.888123 686.084839,611.994141 
	C684.420654,612.047546 682.752991,611.983276 681.086853,611.983276 
	C491.310638,611.982300 301.534424,611.982300 111.758217,611.982971 
	C110.258698,611.982971 108.754662,612.070496 107.260544,611.983276 
	C103.387787,611.757324 101.911102,613.609009 101.952606,617.387146 
	C102.058769,627.049683 101.965805,636.714172 101.980553,646.377930 
	C101.991837,653.772278 102.206009,654.000671 109.532799,654.003113 
	C145.855194,654.015198 182.177597,654.009338 219.500000,654.009766 
M438.409241,818.944092 
	C453.624603,793.621460 468.839966,768.298889 484.208466,742.721375 
	C479.638306,740.093872 475.665344,737.809692 471.309631,735.305481 
	C429.970612,803.998779 388.919769,872.213257 347.678314,940.744385 
	C352.215149,943.446838 356.268921,945.861511 360.575470,948.426758 
	C386.611694,905.114136 412.322784,862.342468 438.409241,818.944092 
M273.500000,527.970032 
	C272.333771,527.970093 271.167572,527.970215 270.001343,527.970215 
	C216.348129,527.970764 162.694901,527.965393 109.041687,527.979248 
	C102.315063,527.980957 101.996468,528.320007 101.974449,535.058960 
	C101.946144,543.723389 101.963127,552.387939 101.967262,561.052429 
	C101.971504,569.959961 101.975014,569.969666 110.723373,569.969727 
	C299.676025,569.971619 488.628662,569.971252 677.581299,569.967896 
	C679.246948,569.967834 681.196777,570.455872 682.508118,569.761230 
	C684.245117,568.841064 686.693604,567.017639 686.742065,565.514832 
	C687.101929,554.363281 687.081543,543.191101 686.766907,532.037048 
	C686.728210,530.664978 684.461731,528.811951 682.838196,528.176147 
	C681.098450,527.494812 678.898376,527.972717 676.899170,527.972656 
	C542.766113,527.969910 408.633057,527.969971 273.500000,527.970032 
M432.500000,372.999969 
	C323.846344,372.999969 215.192688,372.999908 106.539040,373.000336 
	C104.872589,373.000336 103.198723,373.109344 101.541145,372.989746 
	C97.457970,372.695160 95.883446,374.529785 95.939919,378.590973 
	C96.085884,389.087677 96.101379,399.589630 95.929710,410.085602 
	C95.860611,414.310608 97.330078,416.394012 101.717987,416.011169 
	C103.040878,415.895752 104.382729,415.999725 105.715897,415.999725 
	C297.859619,416.000031 490.003357,416.000061 682.147095,415.999451 
	C683.646912,415.999451 685.152283,415.905426 686.645386,416.003143 
	C690.503784,416.255676 692.028809,414.469940 691.985535,410.659180 
	C691.875793,400.994965 691.963562,391.328644 691.960327,381.663147 
	C691.957397,373.012451 691.950317,373.001892 683.470154,373.001587 
	C600.146790,372.998871 516.823364,372.999969 432.500000,372.999969 
M262.500000,448.002014 
	C210.838684,448.002106 159.177353,448.000427 107.516037,448.004089 
	C99.046257,448.004700 99.040863,448.015594 99.036430,456.672546 
	C99.031479,466.338226 99.210114,476.008240 98.965584,485.667694 
	C98.844910,490.434631 100.578766,492.535614 105.360344,492.010040 
	C106.348167,491.901489 107.358391,491.997681 108.358284,491.997681 
	C299.171967,491.997833 489.985626,491.997955 680.799316,491.995789 
	C682.465576,491.995758 684.355957,492.454498 685.739929,491.821075 
	C687.378540,491.071014 689.753357,489.397430 689.788208,488.071014 
	C690.103699,476.081207 690.105896,464.076416 689.801941,452.086151 
	C689.767151,450.712189 687.514648,448.846771 685.896423,448.209290 
	C684.159058,447.524872 681.956604,448.004486 679.957092,448.004425 
	C541.138062,448.001801 402.319031,448.002045 262.500000,448.002014 
M118.996704,897.302612 
	C119.005028,904.257935 121.124458,906.689087 129.859985,909.576721 
	C129.859985,897.290222 129.859985,885.079712 129.859985,872.791382 
	C120.044693,875.811951 118.996803,877.144409 118.996704,886.360779 
	C118.996666,889.689758 118.996696,893.018799 118.996704,897.302612 
M342.514526,906.997314 
	C347.010162,905.196472 348.473114,901.915649 347.951782,897.156677 
	C347.538055,893.380066 347.868774,889.521851 347.868439,885.699890 
	C347.867767,877.552124 345.537811,874.804443 337.149933,873.064148 
	C337.149933,885.228027 337.149933,897.391968 337.149933,910.136597 
	C339.079773,909.017578 340.479431,908.205933 342.514526,906.997314 
z"/>
<path fill="#78B9EB" opacity="1.000000" stroke="none" 
	d="
M576.098267,167.963409 
	C576.098389,138.750290 576.098389,110.031075 576.098389,81.633293 
	C614.291443,119.935707 652.247925,158.000793 690.236938,196.098602 
	C688.976318,196.157883 687.069153,196.324509 685.161804,196.325714 
	C658.013794,196.342773 630.845825,195.699173 603.724365,196.547913 
	C583.539734,197.179581 574.536377,186.540268 576.098267,167.963409 
z"/>
<path fill="#1E80CD" opacity="1.000000" stroke="none" 
	d="
M484.763458,860.999878 
	C484.796875,842.667175 484.678864,824.832703 484.898041,807.002258 
	C485.255859,777.889404 511.633545,752.041626 540.866394,752.003967 
	C571.199585,751.964844 601.532959,751.966675 631.866150,752.003296 
	C661.403870,752.038879 687.932556,778.470764 687.996338,807.992737 
	C688.064026,839.325745 688.071716,870.659241 687.991577,901.992188 
	C687.920593,929.732300 662.274109,956.567261 634.635498,956.973267 
	C602.310913,957.448120 569.968323,957.451111 537.644104,956.963257 
	C511.161041,956.563538 485.540649,930.444458 484.946625,903.996704 
	C484.628601,889.836914 484.808350,875.665894 484.763458,860.999878 
M498.837982,834.502686 
	C498.850677,855.987183 498.534485,877.478210 498.961182,898.954468 
	C499.468658,924.496521 518.773315,942.979797 544.235474,942.994507 
	C571.882446,943.010559 599.529358,942.999878 627.176331,942.997803 
	C654.980896,942.995667 673.924377,924.139893 673.986816,896.305237 
	C674.041016,872.155884 674.003235,848.006287 673.987366,823.856812 
	C673.986206,822.096130 673.831787,820.335571 673.750610,818.616211 
	C615.218689,818.616211 557.216431,818.616211 498.837952,818.616211 
	C498.837952,823.874451 498.837952,828.689575 498.837982,834.502686 
M615.070923,803.843140 
	C616.593323,803.762024 618.115723,803.680908 620.353149,803.561707 
	C613.029602,791.288574 606.324646,779.816772 599.283386,768.555298 
	C598.422974,767.179321 595.770569,766.300842 593.927673,766.264771 
	C583.122559,766.052979 572.311096,766.160278 561.501831,766.160034 
	C557.611572,766.159912 553.721252,766.159973 548.719910,766.159973 
	C556.492371,778.953796 563.548584,790.748657 570.892883,802.361389 
	C571.578369,803.445190 574.083130,803.765991 575.749023,803.780640 
	C588.552856,803.893494 601.358154,803.843140 615.070923,803.843140 
M663.484985,782.030212 
	C650.814514,767.167603 634.114319,764.768127 616.017761,766.517456 
	C615.971619,766.998962 615.800110,767.399414 615.931030,767.621948 
	C622.668396,779.075256 629.405884,790.528625 636.243347,801.922058 
	C636.754211,802.773315 637.994263,803.708862 638.904968,803.718811 
	C650.159912,803.841187 661.416687,803.798706 673.214844,803.798706 
	C672.092896,795.338135 668.708679,788.664062 663.484985,782.030212 
M533.887390,769.359497 
	C532.119812,769.142212 530.152283,768.310425 528.617859,768.809753 
	C520.154480,771.563477 513.268555,776.699219 507.920563,783.796326 
	C503.581848,789.554138 500.466034,795.861389 499.662262,803.454224 
	C517.933533,803.454224 535.757812,803.454224 554.441467,803.454224 
	C547.450623,791.870178 540.858521,780.946838 533.887390,769.359497 
z"/>
<path fill="#1E80CC" opacity="1.000000" stroke="none" 
	d="
M279.290588,775.630981 
	C267.309540,769.107849 254.679947,766.500305 241.563599,765.966125 
	C228.877884,765.449524 216.251312,765.812500 203.887543,769.227295 
	C181.966446,775.281799 167.116135,789.285583 158.173431,809.887207 
	C152.740036,822.404297 150.313995,835.635315 149.241684,849.156799 
	C149.179688,849.938477 149.371735,850.740356 149.488815,851.997192 
	C154.648331,851.997192 159.609421,851.943359 164.568970,852.007751 
	C176.936249,852.168335 184.640152,859.580444 184.823563,871.905945 
	C185.021912,885.235107 185.021729,898.571716 184.823303,911.900879 
	C184.642899,924.020386 177.359146,931.073486 165.372589,931.189331 
	C161.206802,931.229614 157.039062,931.245789 152.874176,931.167786 
	C142.517578,930.973877 135.083099,924.084900 134.926010,913.691895 
	C134.689362,898.035950 134.521774,882.350281 135.220993,866.717346 
	C135.865829,852.300659 136.344223,837.653503 139.295776,823.612366 
	C144.425751,799.208069 156.545670,778.646057 178.403564,765.013489 
	C190.238022,757.632385 203.294662,753.811707 217.056870,752.644958 
	C234.038986,751.205322 251.034378,751.047607 267.641998,755.795410 
	C296.959106,764.176575 315.205841,783.950439 325.040314,812.172913 
	C330.132294,826.785645 332.155029,841.930237 332.267914,857.355896 
	C332.397125,875.011841 332.752838,892.673035 332.423737,910.320984 
	C332.338165,914.909363 330.788300,919.841492 328.611420,923.922485 
	C326.090546,928.648315 321.275269,931.039795 315.675232,931.096130 
	C310.343475,931.149719 305.007751,931.268921 299.679749,931.130493 
	C291.016449,930.905396 283.398773,924.875916 283.043823,916.208984 
	C282.376770,899.920227 282.382141,883.568054 283.007996,867.276794 
	C283.340454,858.623108 291.638153,852.408020 301.270874,852.053894 
	C306.586731,851.858521 311.915619,852.018982 317.191193,852.018982 
	C323.123108,830.049316 302.777924,788.953979 279.290588,775.630981 
z"/>
<path fill="#030F19" opacity="1.000000" stroke="none" 
	d="
M219.000000,654.009766 
	C182.177597,654.009338 145.855194,654.015198 109.532799,654.003113 
	C102.206009,654.000671 101.991837,653.772278 101.980553,646.377930 
	C101.965805,636.714172 102.058769,627.049683 101.952606,617.387146 
	C101.911102,613.609009 103.387787,611.757324 107.260544,611.983276 
	C108.754662,612.070496 110.258698,611.982971 111.758217,611.982971 
	C301.534424,611.982300 491.310638,611.982300 681.086853,611.983276 
	C682.752991,611.983276 684.420654,612.047546 686.084839,611.994141 
	C689.395203,611.888123 691.003662,613.375732 690.988831,616.759705 
	C690.942017,627.422791 690.947693,638.086243 690.978882,648.749390 
	C690.989075,652.239868 689.427246,654.035828 685.859314,653.980896 
	C683.860718,653.950134 681.860901,654.007935 679.861633,654.007935 
	C526.407776,654.009705 372.953888,654.009705 219.000000,654.009766 
M413.500793,614.243469 
	C310.521332,614.243469 207.541901,614.243469 104.309647,614.243469 
	C104.309647,626.751038 104.309647,638.817749 104.309647,650.917847 
	C299.014954,650.917847 493.379944,650.917847 687.773499,650.917847 
	C687.773499,638.520691 687.773499,626.590210 687.773499,614.243408 
	C596.463013,614.243408 505.481934,614.243408 413.500793,614.243469 
z"/>
<path fill="#1E7FCB" opacity="1.000000" stroke="none" 
	d="
M438.221558,819.257446 
	C412.322784,862.342468 386.611694,905.114136 360.575470,948.426758 
	C356.268921,945.861511 352.215149,943.446838 347.678314,940.744385 
	C388.919769,872.213257 429.970612,803.998779 471.309631,735.305481 
	C475.665344,737.809692 479.638306,740.093872 484.208466,742.721375 
	C468.839966,768.298889 453.624603,793.621460 438.221558,819.257446 
z"/>
<path fill="#02080D" opacity="1.000000" stroke="none" 
	d="
M274.000000,527.969971 
	C408.633057,527.969971 542.766113,527.969910 676.899170,527.972656 
	C678.898376,527.972717 681.098450,527.494812 682.838196,528.176147 
	C684.461731,528.811951 686.728210,530.664978 686.766907,532.037048 
	C687.081543,543.191101 687.101929,554.363281 686.742065,565.514832 
	C686.693604,567.017639 684.245117,568.841064 682.508118,569.761230 
	C681.196777,570.455872 679.246948,569.967834 677.581299,569.967896 
	C488.628662,569.971252 299.676025,569.971619 110.723373,569.969727 
	C101.975014,569.969666 101.971504,569.959961 101.967262,561.052429 
	C101.963127,552.387939 101.946144,543.723389 101.974449,535.058960 
	C101.996468,528.320007 102.315063,527.980957 109.041687,527.979248 
	C162.694901,527.965393 216.348129,527.970764 270.001343,527.970215 
	C271.167572,527.970215 272.333771,527.970093 274.000000,527.969971 
M571.500000,530.030151 
	C415.781342,530.030151 260.062683,530.030151 104.319672,530.030151 
	C104.319672,542.709412 104.319672,554.759888 104.319672,566.806824 
	C297.907867,566.806824 491.114075,566.806824 684.322937,566.806824 
	C684.322937,554.444336 684.322937,542.403625 684.322937,530.030151 
	C646.770874,530.030151 609.635437,530.030151 571.500000,530.030151 
z"/>
<path fill="#000306" opacity="1.000000" stroke="none" 
	d="
M433.000000,372.999969 
	C516.823364,372.999969 600.146790,372.998871 683.470154,373.001587 
	C691.950317,373.001892 691.957397,373.012451 691.960327,381.663147 
	C691.963562,391.328644 691.875793,400.994965 691.985535,410.659180 
	C692.028809,414.469940 690.503784,416.255676 686.645386,416.003143 
	C685.152283,415.905426 683.646912,415.999451 682.147095,415.999451 
	C490.003357,416.000061 297.859619,416.000031 105.715897,415.999725 
	C104.382729,415.999725 103.040878,415.895752 101.717987,416.011169 
	C97.330078,416.394012 95.860611,414.310608 95.929710,410.085602 
	C96.101379,399.589630 96.085884,389.087677 95.939919,378.590973 
	C95.883446,374.529785 97.457970,372.695160 101.541145,372.989746 
	C103.198723,373.109344 104.872589,373.000336 106.539040,373.000336 
	C215.192688,372.999908 323.846344,372.999969 433.000000,372.999969 
M97.945351,398.494965 
	C97.945351,403.438965 97.945351,408.382965 97.945351,413.380737 
	C295.370605,413.380737 492.176208,413.380737 689.406311,413.380737 
	C689.406311,406.795807 689.406311,400.649445 689.406311,394.503052 
	C689.406311,388.232971 689.406311,381.962921 689.406311,375.603333 
	C491.848175,375.603333 295.036285,375.603333 97.945351,375.603333 
	C97.945351,383.185791 97.945351,390.341461 97.945351,398.494965 
z"/>
<path fill="#000305" opacity="1.000000" stroke="none" 
	d="
M263.000000,448.002014 
	C402.319031,448.002045 541.138062,448.001801 679.957092,448.004425 
	C681.956604,448.004486 684.159058,447.524872 685.896423,448.209290 
	C687.514648,448.846771 689.767151,450.712189 689.801941,452.086151 
	C690.105896,464.076416 690.103699,476.081207 689.788208,488.071014 
	C689.753357,489.397430 687.378540,491.071014 685.739929,491.821075 
	C684.355957,492.454498 682.465576,491.995758 680.799316,491.995789 
	C489.985626,491.997955 299.171967,491.997833 108.358284,491.997681 
	C107.358391,491.997681 106.348167,491.901489 105.360344,492.010040 
	C100.578766,492.535614 98.844910,490.434631 98.965584,485.667694 
	C99.210114,476.008240 99.031479,466.338226 99.036430,456.672546 
	C99.040863,448.015594 99.046257,448.004700 107.516037,448.004089 
	C159.177353,448.000427 210.838684,448.002106 263.000000,448.002014 
M613.500061,450.171875 
	C443.063660,450.171875 272.627258,450.171875 101.939529,450.171875 
	C101.939529,463.583160 101.939529,476.570404 101.939529,489.518524 
	C297.511444,489.518524 492.571625,489.518524 687.781982,489.518524 
	C687.781982,476.334961 687.781982,463.464203 687.781982,450.171875 
	C663.094421,450.171875 638.797302,450.171875 613.500061,450.171875 
z"/>
<path fill="#1E80CD" opacity="1.000000" stroke="none" 
	d="
M118.996704,896.825195 
	C118.996696,893.018799 118.996666,889.689758 118.996704,886.360779 
	C118.996803,877.144409 120.044693,875.811951 129.859985,872.791382 
	C129.859985,885.079712 129.859985,897.290222 129.859985,909.576721 
	C121.124458,906.689087 119.005028,904.257935 118.996704,896.825195 
z"/>
<path fill="#1E7FCB" opacity="1.000000" stroke="none" 
	d="
M342.196838,907.195801 
	C340.479431,908.205933 339.079773,909.017578 337.149933,910.136597 
	C337.149933,897.391968 337.149933,885.228027 337.150452,873.062134 
	C345.537811,874.804443 347.867767,877.552124 347.868439,885.699890 
	C347.868774,889.521851 347.538055,893.380066 347.951782,897.156677 
	C348.473114,901.915649 347.010162,905.196472 342.196838,907.195801 
z"/>
<path fill="#031322" opacity="1.000000" stroke="none" 
	d="
M498.837952,834.003723 
	C498.837952,828.689575 498.837952,823.874451 498.837952,818.616211 
	C557.216431,818.616211 615.218689,818.616211 673.750610,818.616211 
	C673.831787,820.335571 673.986206,822.096130 673.987366,823.856812 
	C674.003235,848.006287 674.041016,872.155884 673.986816,896.305237 
	C673.924377,924.139893 654.980896,942.995667 627.176331,942.997803 
	C599.529358,942.999878 571.882446,943.010559 544.235474,942.994507 
	C518.773315,942.979797 499.468658,924.496521 498.961182,898.954468 
	C498.534485,877.478210 498.850677,855.987183 498.837952,834.003723 
M561.421082,909.996094 
	C564.476257,912.669861 567.413635,911.826416 570.542908,909.955750 
	C584.235168,901.770508 598.000916,893.708557 611.709595,885.550659 
	C619.137756,881.130127 619.308716,876.329712 612.165222,871.630737 
	C598.696167,862.770935 585.266235,853.843445 571.579895,845.330017 
	C569.124084,843.802368 564.902222,842.875488 562.620178,843.984619 
	C560.639709,844.947205 559.355652,849.170410 559.306702,851.979431 
	C559.011353,868.936523 559.097778,885.901855 559.235840,902.862976 
	C559.253662,905.053894 560.306519,907.236450 561.421082,909.996094 
z"/>
<path fill="#031524" opacity="1.000000" stroke="none" 
	d="
M614.616943,803.843262 
	C601.358154,803.843140 588.552856,803.893494 575.749023,803.780640 
	C574.083130,803.765991 571.578369,803.445190 570.892883,802.361389 
	C563.548584,790.748657 556.492371,778.953796 548.719910,766.159973 
	C553.721252,766.159973 557.611572,766.159912 561.501831,766.160034 
	C572.311096,766.160278 583.122559,766.052979 593.927673,766.264771 
	C595.770569,766.300842 598.422974,767.179321 599.283386,768.555298 
	C606.324646,779.816772 613.029602,791.288574 620.353149,803.561707 
	C618.115723,803.680908 616.593323,803.762024 614.616943,803.843262 
z"/>
<path fill="#031524" opacity="1.000000" stroke="none" 
	d="
M663.712830,782.302612 
	C668.708679,788.664062 672.092896,795.338135 673.214844,803.798706 
	C661.416687,803.798706 650.159912,803.841187 638.904968,803.718811 
	C637.994263,803.708862 636.754211,802.773315 636.243347,801.922058 
	C629.405884,790.528625 622.668396,779.075256 615.931030,767.621948 
	C615.800110,767.399414 615.971619,766.998962 616.017761,766.517456 
	C634.114319,764.768127 650.814514,767.167603 663.712830,782.302612 
z"/>
<path fill="#031524" opacity="1.000000" stroke="none" 
	d="
M534.076904,769.691528 
	C540.858521,780.946838 547.450623,791.870178 554.441467,803.454224 
	C535.757812,803.454224 517.933533,803.454224 499.662262,803.454224 
	C500.466034,795.861389 503.581848,789.554138 507.920563,783.796326 
	C513.268555,776.699219 520.154480,771.563477 528.617859,768.809753 
	C530.152283,768.310425 532.119812,769.142212 534.076904,769.691528 
z"/>
<path fill="#1E80CD" opacity="1.000000" stroke="none" 
	d="
M414.000824,614.243408 
	C505.481934,614.243408 596.463013,614.243408 687.773499,614.243408 
	C687.773499,626.590210 687.773499,638.520691 687.773499,650.917847 
	C493.379944,650.917847 299.014954,650.917847 104.309647,650.917847 
	C104.309647,638.817749 104.309647,626.751038 104.309647,614.243469 
	C207.541901,614.243469 310.521332,614.243469 414.000824,614.243408 
z"/>
<path fill="#1E81CE" opacity="1.000000" stroke="none" 
	d="
M572.000000,530.030151 
	C609.635437,530.030151 646.770874,530.030151 684.322937,530.030151 
	C684.322937,542.403625 684.322937,554.444336 684.322937,566.806824 
	C491.114075,566.806824 297.907867,566.806824 104.319672,566.806824 
	C104.319672,554.759888 104.319672,542.709412 104.319672,530.030151 
	C260.062683,530.030151 415.781342,530.030151 572.000000,530.030151 
z"/>
<path fill="#1E7FCB" opacity="1.000000" stroke="none" 
	d="
M97.945351,397.996033 
	C97.945351,390.341461 97.945351,383.185791 97.945351,375.603333 
	C295.036285,375.603333 491.848175,375.603333 689.406311,375.603333 
	C689.406311,381.962921 689.406311,388.232971 689.406311,394.503052 
	C689.406311,400.649445 689.406311,406.795807 689.406311,413.380737 
	C492.176208,413.380737 295.370605,413.380737 97.945351,413.380737 
	C97.945351,408.382965 97.945351,403.438965 97.945351,397.996033 
z"/>
<path fill="#1E7FCB" opacity="1.000000" stroke="none" 
	d="
M614.000122,450.171875 
	C638.797302,450.171875 663.094421,450.171875 687.781982,450.171875 
	C687.781982,463.464203 687.781982,476.334961 687.781982,489.518524 
	C492.571625,489.518524 297.511444,489.518524 101.939529,489.518524 
	C101.939529,476.570404 101.939529,463.583160 101.939529,450.171875 
	C272.627258,450.171875 443.063660,450.171875 614.000122,450.171875 
z"/>
<path fill="#1E80CC" opacity="1.000000" stroke="none" 
	d="
M561.150513,909.709473 
	C560.306519,907.236450 559.253662,905.053894 559.235840,902.862976 
	C559.097778,885.901855 559.011353,868.936523 559.306702,851.979431 
	C559.355652,849.170410 560.639709,844.947205 562.620178,843.984619 
	C564.902222,842.875488 569.124084,843.802368 571.579895,845.330017 
	C585.266235,853.843445 598.696167,862.770935 612.165222,871.630737 
	C619.308716,876.329712 619.137756,881.130127 611.709595,885.550659 
	C598.000916,893.708557 584.235168,901.770508 570.542908,909.955750 
	C567.413635,911.826416 564.476257,912.669861 561.150513,909.709473 
z"/>
</svg>